<?xml version="1.0" encoding="utf-8"?>
<!-- Generator: Adobe Illustrator 23.1.0, SVG Export Plug-In . SVG Version: 6.00 Build 0)  -->
<svg version="1.1" id="Layer_1" xmlns="http://www.w3.org/2000/svg" xmlns:xlink="http://www.w3.org/1999/xlink" x="0px" y="0px"
	 viewBox="0 0 1000 1000" style="enable-background:new 0 0 1000 1000;" xml:space="preserve">
<style>
    path {
        stroke: #00000;
        fill: #00000;
        stroke-width:14;
        stroke-miterlimit:10;
    }
</style>
<g>
	<g>
		<path d="M710.69,794c19.88-0.11,41.76-2.81,59.64-12.08c15.95-8.27,28.91-21.34,38.45-36.44
			c1.22-1.93,2.51-3.91,3.53-5.96c0.79-1.58,0.73-2.93,1.18-4.52c-0.34,1.18,1.4-1.95,1.82-2.6c1.39-2.21,2.24-4.39,2.98-6.88
			c3.07-10.25,5.72-19.68,6.55-30.41c1.8-23.16,0.37-46.4-1.59-69.5c-3.88-45.63-6.8-91.28-7.03-137.1
			c-0.22-45.79,3.84-91.26,6.37-136.95c1.27-22.92,2.09-45.87,1.71-68.82c-0.34-20.34-1.96-40.8-9.49-59.91
			c-6.76-17.14-17.49-32.99-32.62-43.78c-15.9-11.34-33.62-12.18-52.49-12.65c-45.74-1.15-91.52,0.33-137.27-0.13
			c-46.36-0.47-92.7-1.79-139.03-3.5c-23.2-0.85-46.39-1.8-69.58-2.79c-21.89-0.93-44.2-3.24-66.1-1.89
			c-18.53,1.14-36.56,6.05-51.28,17.76c-7.04,5.6-13.08,13.3-16.88,21.48c-4.14,8.91-5.14,17.68-5.1,27.39
			c0.01,2.59,0.02,5.19,0.03,7.78c0.03,6.43,10.03,6.45,10,0c-0.05-11.94-0.44-23.05,5.6-33.84c9.08-16.23,26.08-25.44,43.9-28.9
			c18.97-3.69,38.77-1.55,57.91-0.72c22.21,0.96,44.43,1.9,66.65,2.78c44.34,1.75,88.7,3.22,133.07,4.01
			c43.99,0.78,87.94,0.11,131.93,0.18c10.78,0.02,21.55,0.08,32.33,0.3c9.63,0.2,19.77-0.24,29.24,1.69
			c16.58,3.38,30.11,14.28,39.58,28c23.37,33.87,20.49,77.82,19.18,117c-1.46,43.58-6.23,87-7.32,130.58
			c-1.09,43.57,0.41,87.17,3.31,130.65c1.47,21.96,3.94,43.85,5.13,65.82c0.58,10.74,0.85,21.51,0.52,32.27
			c-0.34,10.89-0.89,21.73-4.25,32.16c-1.37,4.25-2.24,9.08-4.61,12.87c-0.83,1.34-1.83,2.56-2.44,4.03
			c-0.72,1.75-0.8,3.44-0.94,3.77c-3.31,7.46-9.32,14.63-14.86,20.52c-13.14,13.97-29.24,21.67-47.9,25.46
			c-9.84,2-19.82,2.82-29.85,2.87C704.26,784.03,704.25,794.03,710.69,794L710.69,794z"/>
	</g>
</g>
<g>
	<g>
		<path d="M336.81,268.95c5.36,51.27,6.19,102.92,2.49,154.34c-0.25,3.41,3.38,5.47,6.33,4.82
			c46.96-10.37,95.24,3.8,142.5-4.32c6.33-1.09,3.65-10.73-2.66-9.64c-47.25,8.12-95.38-6.08-142.5,4.32
			c2.11,1.61,4.22,3.21,6.33,4.82c3.7-51.42,2.87-103.07-2.49-154.34C346.15,262.61,336.14,262.54,336.81,268.95L336.81,268.95z"/>
	</g>
</g>
<g>
	<g>
		<path d="M583.61,261.03c1.22,57.2,2.43,114.41,3.65,171.61c0.14,6.43,10.14,6.45,10,0
			c-1.22-57.2-2.43-114.41-3.65-171.61C593.47,254.61,583.47,254.58,583.61,261.03L583.61,261.03z"/>
	</g>
</g>
<g>
	<g>
		<path d="M748.45,268.99c0.51,55.68,1.01,111.37,1.52,167.05c0.06,6.43,10.06,6.45,10,0
			c-0.51-55.68-1.01-111.37-1.52-167.05C758.39,262.56,748.39,262.55,748.45,268.99L748.45,268.99z"/>
	</g>
</g>
<g>
	<g>
		<path d="M597.11,351.79c52.74-6.32,105.93-8.05,158.97-5.16c6.43,0.35,6.41-9.65,0-10
			c-53.04-2.89-106.23-1.16-158.97,5.16C590.8,342.54,590.72,352.55,597.11,351.79L597.11,351.79z"/>
	</g>
</g>
<g>
	<g>
		<path d="M743.65,492.72c-67.42-2.08-134.89-2.53-202.34-1.29c-33.52,0.61-67.1,1.28-100.58,3.11
			c-27.82,1.53-58.41,6.5-78.18,28.14c-9.77,10.69-15.03,24.34-18.56,38.19c-3.92,15.43-6.24,31.32-7.02,47.22
			c-0.78,15.89,0.06,31.86,2.48,47.59c2,13,6.38,25.42,17.14,33.67c20.55,15.77,51.61,12.57,75.87,13.14
			c33.96,0.8,67.93,1.61,101.89,2.41c67.93,1.61,135.86,3.21,203.79,4.82c8.32,0.2,16.65,0.39,24.97,0.59c6.44,0.15,6.43-9.85,0-10
			c-65.27-1.54-130.53-3.09-195.8-4.63c-31.97-0.76-63.93-1.51-95.9-2.27c-15.98-0.38-31.97-0.76-47.95-1.13
			c-13.3-0.31-26.96,0.08-40.08-2.47c-10.73-2.09-21.68-6.36-27.76-16c-7.43-11.78-7.91-28.46-8.62-41.94
			c-0.8-15.38-0.14-30.88,2.15-46.12c2.22-14.8,5.27-30.56,12.22-43.95c13.44-25.91,42.79-34.33,69.92-36.62
			c31.88-2.69,64.17-2.79,96.14-3.48c72.07-1.56,144.17-1.2,216.22,1.02C750.09,502.92,750.08,492.92,743.65,492.72L743.65,492.72z"
			/>
	</g>
</g>
<g>
	<path d="M704.78,791.81c1.7,11.85,3.21,24.45,2.43,36.43s-3.85,23.34-11.31,32.7c-6.55,8.22-15.46,13.55-25.34,17.21
		c-9.88,3.66-20.72,5.64-31.11,7.15c-22.56,3.29-45.26,5.64-68.02,7.06s-45.57,1.9-68.37,1.44c-17.58-0.35-35.14-1.27-52.69-2.46
		s-35.08-2.66-52.61-4.13c-16.08-1.35-32.16-2.7-48.24-4.04c-16.08-1.35-32.16-2.7-48.24-4.04c-19.71-1.65-40.2-3.64-59.4-8.56
		s-37.11-12.79-51.65-26.2c-9.75-8.99-17.28-19.98-22.93-31.98s-9.41-25.03-11.62-38.11c-2.21-13.08-3-26.3-3.14-39.57
		c-0.13-13.27,0.39-26.58,0.83-39.84c1.99-60.8,1.97-121.66-0.06-182.46c-2.03-60.8-6.08-121.53-12.13-182.06
		c-1.12-11.16-2.25-22.64-1.93-33.88c0.32-11.23,2.09-22.22,6.8-32.41c7.75-16.79,22.61-28.41,40-34.64
		c17.38-6.23,37.3-7.07,55.16-2.28c8.3,5.33,8.3,5.33,8.3,5.33l-0.91,2.22C247,251,248,267,249,283c0,5,0,9,1,14c0,3,0,6,0,9
		c12,73,13,143,10,215c-3,44-10,86-18,130c-4,29-8,58,1,87c0,1,2,2,2,3c3,14,13,26,26,31c3,1,5,2,7,3c8,3,16,3,24,4
		c78,7,154,13,232,15c53,0,105.92,0,158.58-3.61c12.92-0.89,12.92,0.11,12.92,0.11v-1"/>
	<g>
		<path d="M699.95,793.14c2.69,18.96,5.64,41.02-3.95,58.61c-9.47,17.37-29.15,23.61-47.4,27.02
			c-42.83,8-87.4,10.31-130.9,10.2c-43.96-0.11-87.76-4.05-131.53-7.72c-21.87-1.83-43.73-3.67-65.6-5.5
			c-21.26-1.78-42.68-3.05-63.68-6.99c-18.78-3.52-37.4-9.23-53.31-20.1c-15.76-10.76-27.25-26.65-34.36-44.24
			c-16.52-40.83-11.38-86.44-10.28-129.36c2.29-89.23,0.23-178.58-6.16-267.61c-1.61-22.42-3.49-44.83-5.65-67.2
			c-2-20.76-5.65-42.71-0.36-63.27c9.69-37.7,52.51-53.49,88.01-46.18c4.68,0.96,8.24,3.49,12.18,6.02
			c-0.77-1.88-1.53-3.76-2.3-5.65c-2.35,5.74-1.82,12.97-1.9,19.1c-0.11,8.68,0.3,17.35,0.81,26.01c0.46,7.77,1.25,15.67,1.41,23.42
			c0.17,8.25,1.58,16.17,2.74,24.35c4.84,33.9,7.37,68.12,8.29,102.34c0.91,33.99,1.08,68.45-1.6,102.36
			c-2.67,33.79-7.78,67.31-13.63,100.67c-5.65,32.25-12.07,65.95-5.51,98.56c0.78,3.87,1.54,8.07,3.04,11.72
			c0.48,1.17,1.1,1.93,1.79,2.96c0.68,1.02,0.15-0.14,0.06-0.33c0.38,0.84,0.46,1.97,0.72,2.87c1.73,6,4.64,11.59,8.46,16.51
			c3.95,5.08,8.88,9.43,14.55,12.5c5.86,3.17,12.71,6.08,19.22,7.46c16.37,3.46,33.85,3.69,50.5,5.12
			c17.02,1.46,34.05,2.87,51.08,4.17c34.27,2.63,68.56,4.85,102.9,6.39c69.54,3.12,139,1.33,208.47-2.18
			c2.21-0.11,4.42-0.17,6.63-0.13c1.07,0.02,0.93-0.14,0.77,0.01c0.08-0.07-2.4-1.44-2.8-3.22c1.26,5.56,9.82,4.25,9.82-1.33
			c0-0.33,0-0.67,0-1c0-6.43-10-6.45-10,0c0,0.33,0,0.67,0,1c3.27-0.44,6.55-0.89,9.82-1.33c-1.55-6.86-15.53-3.93-19.72-3.65
			c-17.12,1.13-34.27,1.91-51.42,2.43c-34.7,1.04-69.47,1.35-104.19,1.05c-34.1-0.3-68.29-2.48-102.31-4.66
			c-34.36-2.2-68.69-4.93-103-7.9c-26.78-2.32-66.85-0.28-78.23-31.11c-0.97-2.64-1.21-5.79-2.84-8.12
			c-0.31-0.45-0.79-0.8-1.08-1.26c0.19,0.29,0.78,1.87,0-0.24c-0.78-2.12-1.26-4.42-1.78-6.62c-1.95-8.25-2.89-16.68-3.13-25.15
			c-0.47-16.63,1.53-33.31,3.93-49.74c2.48-16.97,5.99-33.81,8.68-50.76c2.57-16.22,4.86-32.5,6.7-48.82
			c3.75-33.32,4.56-66.83,4.49-100.35c-0.08-33.83-1.57-67.66-5.12-101.31c-0.87-8.26-1.87-16.5-2.98-24.73
			c-1.15-8.52-3.24-17.26-3.34-25.85c-0.17-16.05-2.18-32.14-2.24-48.26c-0.02-6.39-0.88-14.33,1.56-20.31
			c0.85-2.08-0.59-4.55-2.3-5.65c-4.17-2.68-7.97-5.56-12.87-6.67c-10.12-2.27-20.65-2.97-30.98-1.97
			c-18.6,1.8-36.91,8.54-50.92,21.16c-33.28,29.98-21.86,79.14-18.36,118.3c8.45,94.51,12.02,189.45,10.69,284.32
			c-0.34,23.83-1.23,47.65-1.84,71.47c-0.58,22.7-0.29,45.65,4.48,67.94c4.24,19.84,12.23,38.99,24.94,54.91
			c12.18,15.25,28.84,25.81,46.97,32.62c19.9,7.47,41.21,10.43,62.26,12.52c22.94,2.28,45.95,3.95,68.92,5.87
			c46.58,3.9,93.19,8.59,139.93,9.95c46.38,1.36,92.8-1.22,138.76-7.53c19.82-2.72,41.04-5.87,57.24-18.59
			c15.35-12.05,20.93-30.79,21.16-49.68c0.13-10.84-1.29-21.62-2.81-32.33C708.7,784.13,699.06,786.83,699.95,793.14L699.95,793.14z
			"/>
	</g>
</g>
</svg>
