<?xml version="1.0" encoding="utf-8"?>
<!-- Generator: Adobe Illustrator 23.1.0, SVG Export Plug-In . SVG Version: 6.00 Build 0)  -->
<svg version="1.1" id="Layer_1" xmlns="http://www.w3.org/2000/svg" xmlns:xlink="http://www.w3.org/1999/xlink" x="0px" y="0px"
	 viewBox="0 0 2000 1000" style="enable-background:new 0 0 2000 1000;" xml:space="preserve">
<g>
	<g>
		<path d="M339.24,582.43c-6.93-32.43-39.42-53.54-70.52-58.27c-36.21-5.51-73.97,5.59-103.27,27.24
			c-28.82,21.3-50.43,50.13-66.03,82.22c-17.02,35.01-27.5,72.09-31.57,110.78c-3.67,34.93-1.98,72.47,11.59,105.26
			c13.58,32.81,37.41,60.5,70.59,74.5c33.2,14.01,69.56,11.26,100.96-6.28c31.43-17.56,52.76-46.58,66.35-79.29
			c13.39-32.25,18.36-67.62,23.11-101.98c5.47-39.51,9.19-79.38,6.26-119.27c-0.79-10.79-2.14-21.52-3.72-32.23
			c-0.73-4.98-6.04-11.17-10.34-13.45c-4.54-2.4-9.23-3.36-14.35-2.67c-11.15,1.5-19.23,10.8-19.51,22.1
			c-0.8,31.77-1.59,63.54-2.39,95.32c-0.8,31.75-1.33,63.34,3.01,94.89c7.48,54.26,34.38,109.92,85.38,135.42
			c29.06,14.53,63.2,19.85,94.62,9.87c11.2-3.56,19.56-15.8,15.71-27.68c-3.63-11.23-15.67-19.53-27.68-15.71
			c-2.97,0.94-5.97,1.78-9.03,2.42c-1.27,0.27-2.55,0.45-3.82,0.72c-3.31,0.69,5.79-0.47,0.6-0.07c-6.24,0.48-12.38,0.68-18.63,0.13
			c-0.45-0.04-5.61-0.41-1.66-0.12c3.9,0.29-1.14-0.21-1.64-0.3c-2.83-0.5-5.63-1.12-8.41-1.84c-2.79-0.72-5.54-1.55-8.26-2.48
			c-1.49-0.51-2.94-1.09-4.42-1.61c-4.3-1.53,4.05,1.98-0.41-0.16c-5.19-2.49-10.25-5.08-15.1-8.19c-1.88-1.21-4.26-3.67-6.38-4.41
			c0.7,0.55,1.4,1.1,2.1,1.64c-0.81-0.63-1.6-1.28-2.39-1.94c-1.43-1.19-2.84-2.42-4.21-3.68c-4.16-3.8-8.05-7.89-11.68-12.2
			c-0.72-0.86-4.41-4.91-0.48-0.44c-1.04-1.18-1.93-2.58-2.84-3.86c-1.84-2.6-3.6-5.27-5.27-7.99c-3.06-4.98-5.82-10.15-8.3-15.44
			c-0.45-0.96-0.88-1.94-1.33-2.9c-2.31-5.01,1.75,4.65-0.22-0.5c-1.14-2.98-2.3-5.95-3.33-8.97c-4.22-12.33-6.94-24.99-8.97-37.84
			c-0.16-0.98-0.84-4.36,0.02,0.24c-0.35-1.88-0.46-3.85-0.66-5.75c-0.34-3.2-0.62-6.4-0.86-9.61c-0.57-7.71-0.88-15.43-1.02-23.16
			c-0.26-14.19,0.07-28.39,0.42-42.57c0.84-33.74,1.69-67.48,2.54-101.22c-14.73,1.99-29.46,3.99-44.2,5.98
			c0.14,0.97,0.28,1.94,0.42,2.91c0.53,3.48-0.39-3.66-0.03-0.16c0.2,1.95,0.46,3.89,0.67,5.83c0.48,4.53,0.87,9.08,1.18,13.63
			c0.6,8.77,0.88,17.56,0.91,26.35c0.05,17.96-1.01,35.91-2.77,53.78c-0.87,8.8-1.87,17.59-3.07,26.34c0.04-0.3,0.52-3.76,0.14-1.11
			c-0.14,0.97-0.27,1.95-0.41,2.92c-0.32,2.27-0.65,4.54-0.99,6.81c-0.67,4.53-1.37,9.06-2.09,13.58
			c-2.46,15.44-5.13,30.86-8.96,46.02c-1.9,7.51-4.08,14.94-6.66,22.24c-0.67,1.89-1.36,3.77-2.09,5.63
			c-0.3,0.76-2.23,5.6-1.13,2.88c1.09-2.69-0.02,0.01-0.23,0.46c-0.48,1.04-0.94,2.09-1.43,3.12c-0.86,1.82-1.74,3.62-2.66,5.4
			c-3.39,6.58-7.28,12.82-11.56,18.86c-2.25,3.18,2.69-3.26-0.61,0.78c-0.95,1.17-1.93,2.31-2.92,3.45
			c-2.5,2.84-5.12,5.57-7.87,8.18c-2.39,2.27-4.94,4.34-7.42,6.51c-1.85,1.62,1.52-1.15,1.56-1.17c-0.64,0.34-1.25,0.93-1.83,1.36
			c-1.64,1.19-3.3,2.34-5,3.45c-2.75,1.79-5.58,3.47-8.48,5.01c-1.34,0.71-2.69,1.39-4.05,2.05c-0.68,0.33-1.38,0.62-2.06,0.95
			c-2.51,1.25,4.41-1.67,0.51-0.21c-6.45,2.4-12.87,4.04-19.61,5.35c-2.5,0.48,2.24-0.29,2.23-0.29c-0.68-0.08-1.58,0.16-2.27,0.22
			c-1.77,0.15-3.55,0.26-5.33,0.3c-3.59,0.09-7.15-0.12-10.73-0.43c-0.66-0.06-3.36-0.34-0.04,0.02c3.47,0.37,0.11-0.04-0.76-0.2
			c-1.49-0.28-2.98-0.59-4.45-0.95c-3.43-0.82-6.81-1.85-10.13-3.07c-0.71-0.26-1.41-0.54-2.12-0.8c-3.75-1.42,0.84,0.18,1.2,0.51
			c-0.97-0.87-2.91-1.36-4.09-1.95c-3.15-1.59-6.21-3.35-9.18-5.26c-1.49-0.95-2.94-1.95-4.38-2.98c-0.55-0.39-1.21-1.08-1.83-1.34
			c0.04,0.02,3.43,2.8,1.57,1.2c-2.68-2.3-5.38-4.54-7.91-7.01c-2.33-2.28-4.57-4.65-6.7-7.12c-0.46-0.53-4.16-5.12-2.01-2.37
			c1.92,2.46,0.31,0.4-0.04-0.11c-0.57-0.81-1.16-1.61-1.72-2.43c-4.21-6.12-8.81-13.18-11.14-20.28c1.22,3.7,0.45,1.01-0.3-0.98
			c-0.7-1.87-1.36-3.76-1.98-5.66c-1.25-3.8-2.33-7.65-3.28-11.53c-0.88-3.61-1.63-7.26-2.27-10.92c-0.08-0.43-0.71-5.09-0.81-5.09
			c0.1,0,0.66,5.7,0.13,0.86c-0.12-1.14-0.26-2.28-0.37-3.42c-0.77-7.71-1.11-15.46-1.1-23.2c0.01-8.05,0.38-16.11,1.08-24.13
			c0.34-3.92,0.79-7.83,1.25-11.74c0.31-2.66-0.21,1.31-0.2,1.48c-0.05-1.05,0.37-2.51,0.54-3.59c0.33-2.1,0.67-4.19,1.04-6.28
			c2.91-16.45,7.22-32.64,12.83-48.37c1.23-3.44,2.52-6.86,3.87-10.26c0.44-1.1,0.85-2.32,1.38-3.39c-0.11,0.22-1.53,3.52-0.49,1.16
			c0.98-2.24,1.96-4.47,2.98-6.69c3.24-7.05,6.75-13.99,10.55-20.75c3.66-6.5,7.59-12.84,11.86-18.96c0.95-1.36,1.91-2.71,2.89-4.05
			c0.65-0.89,1.33-1.77,1.98-2.66c1.55-2.1-0.98,1.27-0.98,1.27c-0.43-1.13,6.5-7.78,7.51-8.89c5.03-5.59,10.43-10.85,16.18-15.69
			c0.64-0.54,1.3-1.07,1.94-1.61c2.57-2.16-0.64-0.11-0.65,0.45c0.01-0.59,3.48-2.55,4.02-2.94c3.18-2.24,6.46-4.35,9.82-6.32
			c3.13-1.84,6.33-3.55,9.6-5.13c1.74-0.85,3.51-1.81,5.34-2.45c-0.11,0.04-3.91,1.51-1.5,0.67c1.05-0.37,2.09-0.81,3.14-1.19
			c7.13-2.59,14.42-4.42,21.88-5.76c4.47-0.8-0.69,0.31-0.99,0.1c0.3,0.2,2.12-0.23,2.51-0.26c1.96-0.18,3.92-0.32,5.88-0.4
			c3.54-0.14,7.09-0.11,10.63,0.16c0.7,0.05,1.4,0.16,2.09,0.19c2.51,0.12-2.62-0.4-2.5-0.38c1.6,0.35,3.25,0.52,4.86,0.85
			c3.22,0.65,6.41,1.49,9.53,2.51c1.33,0.44,2.63,0.98,3.96,1.41c2.32,0.75-2.21-0.98-2.15-0.95c0.79,0.44,1.7,0.76,2.53,1.15
			c2.88,1.38,5.68,2.93,8.36,4.68c1.11,0.73,2.16,1.66,3.31,2.31c-0.41-0.23-4.08-3.51-1.43-1.03c0.48,0.45,0.99,0.87,1.48,1.31
			c0.97,0.88,1.9,1.8,2.8,2.74c0.59,0.62,1.1,1.37,1.74,1.92c1.94,1.68-2.46-3.7-1.12-1.53c1.46,2.37,2.95,4.64,4.26,7.1
			c1.8,3.39-1.3-4.38-0.36-0.64c0.43,1.68,0.96,3.3,1.32,5c2.46,11.53,16.58,19.31,27.68,15.71
			C335.68,606.18,341.87,594.78,339.24,582.43L339.24,582.43z"/>
	</g>
</g>
<g>
	<g>
		<path d="M562.99,224.05c-10.29,88.85-15.66,178.16-19.55,267.49c-3.88,89.07-6.32,178.21-10.85,267.25
			c-2.56,50.25-5.79,100.47-10.29,150.59c-1.06,11.76,11.1,23.01,22.5,22.5c13.09-0.59,21.37-9.91,22.5-22.5
			c8-89.12,11.96-178.53,15.35-267.93c3.37-89.07,6.21-178.18,12.02-267.13c3.28-50.19,7.53-100.31,13.32-150.28
			c1.36-11.73-11.32-23-22.5-22.5C572.14,202.14,564.45,211.47,562.99,224.05L562.99,224.05z"/>
	</g>
</g>
<g>
	<g>
		<path d="M906.79,578.76c-40.3,63.41-42.59,142.1-37.23,214.75c2.88,39.09,9.88,80.34,40.79,107.71
			c29.98,26.55,71.24,35.6,109.64,24.03c38.59-11.63,68.63-39.58,90.47-72.63c21.51-32.56,36.63-70.38,45.93-108.17
			c8.88-36.08,14.11-75.31,9.74-112.44c-4.3-36.57-17.52-71.77-49.17-93.15c-32.09-21.68-74.16-19.43-110.3-11.76
			c-39.26,8.33-77.06,25.67-100.56,59.42c-5.52,7.94-9.58,16.89-12.65,26.03c-3.75,11.17,4.32,25.08,15.71,27.68
			c12.44,2.83,23.66-3.76,27.68-15.71c0.33-0.98,0.68-1.95,1.02-2.93c0.2-0.58,1.27-3.04,0.02-0.19c-1.4,3.2,1.07-2.14,1.47-2.92
			c1.9-3.68,4.13-7.13,6.5-10.51c2.28-3.27-2.83,3.34,0.8-0.94c1.17-1.38,2.39-2.74,3.64-4.05c2.69-2.83,5.55-5.49,8.55-7.99
			c4.31-3.6-2.28,1.5,0.98-0.81c1.49-1.05,2.96-2.1,4.49-3.1c3.85-2.53,7.85-4.82,11.95-6.91c1.84-0.94,3.71-1.79,5.56-2.68
			c0.78-0.37,2.92-0.66,0.55-0.28c-2.81,0.45,0.56-0.22,1.4-0.55c4.12-1.63,8.3-3.09,12.53-4.4c8.41-2.62,16.98-4.71,25.62-6.43
			c3.67-0.73,7.35-1.33,11.04-1.94c1.57-0.26,3.69,0.19-1.19,0.14c0.78,0.01,1.63-0.2,2.4-0.29c2.14-0.24,4.28-0.45,6.43-0.62
			c7.98-0.62,16.02-0.7,24,0.03c0.79,0.07,1.57,0.16,2.36,0.24c4.15,0.41-0.84,0.05-1.3-0.18c1.4,0.69,3.88,0.67,5.39,0.99
			c3.8,0.81,7.56,1.83,11.23,3.13c0.22,0.08,2.62,0.72,2.9,1.08c0.05,0.07-4.12-1.92-1.81-0.75c1.62,0.82,3.27,1.55,4.87,2.41
			c1.83,0.99,3.62,2.07,5.36,3.22c0.66,0.43,1.31,0.88,1.95,1.34c2.92,2.07,0.62,1.15-0.52-0.45c1.75,2.46,5.06,4.47,7.16,6.73
			c1.11,1.19,2.11,2.47,3.2,3.67c1.61,1.79-1.4-1.87-1.38-1.82c0.54,0.97,1.38,1.9,2.02,2.83c1.97,2.88,3.75,5.89,5.36,8.98
			c0.65,1.25,1.27,2.51,1.87,3.78c0.13,0.27,0.79,2.28,1.16,2.58c-1.14-0.93-1.82-4.5-0.4-0.77c2.48,6.52,4.34,13.26,5.74,20.1
			c0.39,1.91,0.74,3.83,1.06,5.75c0.12,0.72,0.21,1.45,0.34,2.17c0.46,2.53-0.3-2.45-0.29-2.35c0.35,3.91,0.88,7.79,1.14,11.71
			c0.47,7.08,0.57,14.19,0.39,21.28c-0.23,9.1-0.83,18.2-1.77,27.25c-0.22,2.11-0.48,4.22-0.71,6.33c-0.12,1.08-0.32,4.42,0.1-0.56
			c-0.08,0.9-0.25,1.81-0.38,2.7c-0.66,4.51-1.4,9-2.22,13.48c-3.26,17.61-7.84,34.98-13.69,51.9c-1.49,4.3-3.06,8.58-4.71,12.82
			c-0.77,1.98-1.59,3.94-2.37,5.92c-0.94,2.4,0.42-0.95,0.51-1.17c-0.58,1.4-1.2,2.79-1.81,4.18c-3.46,7.85-7.2,15.59-11.24,23.16
			c-3.98,7.46-8.28,14.76-12.97,21.8c-2.19,3.28-4.49,6.47-6.81,9.65c-1.6,2.2,0.16,1.31,0.43-0.55c-0.07,0.5-1.26,1.57-1.58,1.97
			c-1.59,1.96-3.22,3.89-4.9,5.77c-5.39,6.08-11.21,11.79-17.48,16.96c-0.17,0.14-1.78,1.63-1.93,1.56c0.22,0.1,3.46-2.49,0.6-0.5
			c-1.59,1.11-3.15,2.26-4.76,3.33c-3.46,2.31-7.02,4.46-10.68,6.42c-1.95,1.04-3.93,2.04-5.94,2.97c-0.75,0.35-1.52,0.67-2.27,1.03
			c-2.87,1.35,3.78-1.39,0.79-0.36c-3.91,1.35-7.74,2.81-11.75,3.88c-1.85,0.5-3.72,0.94-5.6,1.34c-1.37,0.29-4.44,0.26-5.66,1.03
			c0.47-0.29,5.35-0.53,1.09-0.19c-0.82,0.06-1.64,0.15-2.46,0.21c-2.46,0.18-4.93,0.27-7.4,0.25c-1.65-0.01-3.3-0.07-4.95-0.17
			c-1.01-0.06-2.02-0.18-3.03-0.24c-1.79-0.11-3.1-1.18,1.46,0.24c-3.57-1.11-7.48-1.4-11.11-2.44c-1.7-0.49-3.39-1.03-5.06-1.61
			c-0.96-0.34-1.9-0.7-2.85-1.06c-0.58-0.21-3.07-1.16-0.12-0.03c3.3,1.26-2.01-1.02-2.81-1.43c-1.8-0.92-3.58-1.9-5.31-2.94
			c-1.74-1.04-3.44-2.13-5.1-3.28c-0.62-0.43-1.22-0.9-1.85-1.32c-2.51-1.68,3.23,2.73,0.95,0.75c-2.87-2.49-5.72-4.94-8.34-7.7
			c-1.22-1.28-2.39-2.6-3.52-3.96c-0.52-0.62-2.69-3.19-0.6-0.69c1.96,2.35,0.3,0.37-0.05-0.16c-2.38-3.65-4.7-7.26-6.66-11.16
			c-0.4-0.79-3.03-6.28-1.66-3.44c1.33,2.76-1.03-2.88-1.28-3.6c-1.39-3.99-2.55-8.06-3.54-12.17c-0.93-3.86-1.71-7.77-2.36-11.69
			c-0.14-0.82-0.22-5.31-0.91-5.92c0.98,0.88,0.5,4.1,0.15,0.88c-0.12-1.14-0.26-2.27-0.39-3.41c-3.56-33.13-4.74-67.03-2.41-100.29
			c0.27-3.9,0.61-7.8,1-11.7c0.2-1.94,0.41-3.88,0.64-5.82c0.11-0.97,0.5-2.4,0.41-3.31c0.14,1.38-0.58,4.02-0.13,1.02
			c1.24-8.2,2.67-16.36,4.55-24.45c1.79-7.75,3.94-15.42,6.47-22.96c1.22-3.63,2.53-7.23,3.93-10.79c0.4-1.02,0.82-2.03,1.23-3.04
			c0.96-2.4-0.61,1.57-0.67,1.6c0.85-0.37,2.67-5.87,3.07-6.72c3.46-7.21,7.36-14.18,11.65-20.93c6.32-9.95,2.4-25.25-8.07-30.78
			C926.45,564.82,913.54,568.14,906.79,578.76L906.79,578.76z"/>
	</g>
</g>
<g>
	<g>
		<path d="M1487.5,556.91c-2.43,31.05-5.18,62.08-9.05,92.98c-0.24,1.89-0.48,3.78-0.72,5.67c-0.11,0.83-0.89,7.19-0.2,1.57
			c-0.46,3.78-1.05,7.55-1.6,11.31c-1.11,7.53-2.29,15.05-3.57,22.55c-2.65,15.6-5.7,31.13-9.25,46.55
			c-3.41,14.78-7.27,29.46-11.68,43.98c-1.96,6.44-4.01,12.86-6.21,19.22c-1.17,3.38-2.38,6.74-3.66,10.08
			c-0.64,1.67-1.28,3.33-1.95,4.99c-0.44,1.1-0.89,2.2-1.35,3.3c1.11-2.64,1.17-2.8,0.16-0.47c-3,6.44-6.03,12.82-9.59,18.98
			c-1.77,3.06-3.63,6.06-5.6,8.99c-0.66,0.98-1.32,1.95-2,2.91c-0.64,0.91-1.3,1.81-1.96,2.71c1.93-2.46,2.14-2.73,0.62-0.81
			c-4.04,4.86-8.24,9.53-12.93,13.79c-1.16,1.05-2.38,2.04-3.55,3.09c-4,3.59,4.02-2.74-0.36,0.34c-2.97,2.09-5.94,4.13-9.09,5.94
			c-2.23,1.28-4.53,2.42-6.84,3.55c-4.78,2.33,4.75-1.56-0.29,0.11c-1.46,0.49-2.89,1.04-4.36,1.5c-3.18,0.99-6.4,1.65-9.66,2.33
			c-5.98,1.25,4.6-0.04-1.49,0.14c-2.51,0.08-5.01,0.3-7.52,0.31c-3.78,0.01-7.56-0.2-11.32-0.56c-0.91-0.09-7.15-0.34-1.56-0.14
			c-1.84-0.07-3.83-0.62-5.64-0.95c-7.11-1.31-14.18-2.98-21.14-4.94c-3.24-0.92-6.46-1.91-9.64-3.03c-1.46-0.52-3.4-0.95-4.72-1.78
			c4.77,2.97,0.38,0.13-0.77-0.43c-3.01-1.45-5.95-3.06-8.77-4.86c-1.34-0.86-2.98-1.75-4.14-2.85c4.04,3.88,0.14-0.07-0.57-0.72
			c-1.7-1.55-5.94-4.67-6.56-6.93c0.51,0.68,1.03,1.37,1.54,2.05c-0.64-0.85-1.27-1.71-1.87-2.59c-0.91-1.32-1.79-2.66-2.62-4.03
			c-1.69-2.76-3.22-5.61-4.62-8.52c-0.5-1.04-3.18-5.83-0.38-0.58c-1-1.87-1.62-4.11-2.32-6.11c-2.07-5.89-3.72-11.93-5.09-18.03
			c-0.83-3.69-1.55-7.39-2.17-11.12c-0.31-1.85-0.69-3.73-0.87-5.6c0.55,5.83-0.24-2.37-0.35-3.4c-1.57-15.1-1.85-30.3-1.62-45.47
			c0.21-13.78,1.02-27.54,2.19-41.27c0.92-10.73,2.07-21.44,3.39-32.12c0.17-1.35,0.34-2.69,0.51-4.04
			c0.19-1.52,1.22-8.15,0.11-0.95c0.52-3.37,0.93-6.76,1.42-10.13c0.98-6.72,2.01-13.43,3.11-20.14
			c5.13-31.32,11.51-62.44,18.9-93.31c2.74-11.42-3.59-24.92-15.71-27.68c-11.56-2.63-24.75,3.47-27.68,15.71
			c-12.82,53.55-22.74,107.96-28.13,162.79c-4.48,45.54-6.66,93.75,5.89,138.14c8.8,31.14,27.01,59.09,57.52,72.34
			c15.03,6.53,30.78,11.01,46.96,13.64c18.38,2.99,36.99,3.92,55.15-1.14c64.96-18.09,91.3-88.17,107.35-146.68
			c17.48-63.74,25.31-129.8,30.93-195.5c0.7-8.23,1.37-16.46,2.01-24.69c0.92-11.76-11.01-23.01-22.5-22.5
			C1497.02,534.99,1488.49,544.31,1487.5,556.91L1487.5,556.91z"/>
	</g>
</g>
<g>
	<g>
		<path d="M1750.75,241.32c-15.17,121.4-30.35,242.81-45.52,364.21c-3.79,30.35-7.59,60.7-11.38,91.05
			c-3.75,30.01-8.75,60.19-9.84,90.44c-1.06,29.45,3.15,58.69,16.04,85.37c12.41,25.68,33.68,45.05,60.21,55.23
			c28.03,10.76,61.18,8.7,89.31-0.56c30.86-10.15,58-27.82,84.7-45.89c9.73-6.59,14.96-20.11,8.07-30.78
			c-6.25-9.69-20.36-15.13-30.78-8.07c-11.34,7.67-22.69,15.35-34.46,22.37c-5.1,3.04-10.27,5.96-15.53,8.7
			c-2.89,1.5-5.81,2.94-8.75,4.32c-1.34,0.63-2.69,1.22-4.04,1.84c-2.33,1.01-2.17,0.95,0.48-0.18c-1.09,0.45-2.19,0.89-3.29,1.31
			c-5.36,2.07-10.82,3.91-16.37,5.39c-3.11,0.83-6.26,1.56-9.42,2.16c-1.06,0.2-2.12,0.39-3.18,0.57c-1.06,0.18-2.13,0.34-3.2,0.49
			c3.31-0.44,3.7-0.51,1.17-0.21c-5.65,0.42-11.23,0.8-16.9,0.59c-2.28-0.08-6.76,0.42-8.78-0.67c0.94,0.13,1.88,0.26,2.82,0.38
			c-0.79-0.11-1.57-0.24-2.36-0.38c-1.82-0.32-3.64-0.68-5.44-1.1c-2.57-0.6-5.11-1.3-7.62-2.11c-1.5-0.49-2.97-1.06-4.46-1.58
			c-5.11-1.79,4.41,2.23-0.43-0.22c-2.36-1.19-4.71-2.37-6.98-3.73c-1.37-0.82-2.71-1.68-4.02-2.58c-0.64-0.43-1.26-0.88-1.88-1.34
			c-1.34-0.99-0.84-0.59,1.51,1.19c-2.14-0.53-5.24-4.58-6.78-6.14c-1.79-1.81-3.42-3.74-5.11-5.64c-3.5-3.92,2.74,4.09-0.22-0.27
			c-0.57-0.84-1.18-1.66-1.76-2.5c-1.73-2.54-3.33-5.16-4.82-7.85c-1.5-2.71-2.82-5.48-4.14-8.28c-1.78-3.76,0.19,0.83,0.44,1.1
			c-0.8-0.85-1.26-3.25-1.66-4.35c-2.11-5.84-3.78-11.85-5.04-17.93c-0.5-2.43-1.33-5.12-1.36-7.61c0.07,5.38-0.08-0.91-0.17-1.79
			c-0.13-1.3-0.25-2.59-0.35-3.89c-0.63-7.79-0.74-15.62-0.51-23.44c0.84-28.93,5.57-57.78,9.16-86.46
			c3.67-29.36,7.34-58.72,11.01-88.08c7.3-58.39,14.6-116.78,21.9-175.18c8.25-65.98,16.49-131.96,24.74-197.94
			c0.66-5.31-2.99-12.31-6.59-15.91c-3.9-3.9-10.31-6.84-15.91-6.59c-5.82,0.26-11.85,2.17-15.91,6.59
			C1753.03,230.1,1751.53,235.04,1750.75,241.32L1750.75,241.32z"/>
	</g>
</g>
<g>
	<g>
		<path d="M1620.67,581.93c72.66-0.22,145.31-2.6,217.83-7.17c20.44-1.29,40.86-2.76,61.27-4.39c11.7-0.93,23.07-9.68,22.5-22.5
			c-0.51-11.39-9.94-23.5-22.5-22.5c-72.43,5.78-145.03,9.43-217.68,10.86c-20.47,0.4-40.95,0.63-61.43,0.69
			c-11.77,0.04-23.05,10.32-22.5,22.5C1598.71,571.59,1608.06,581.97,1620.67,581.93L1620.67,581.93z"/>
	</g>
</g>
<g>
	<g>
		<path d="M593.59,596.67c-3.85,5.11,1.49-1.64,2.39-2.62c1.55-1.7,3.17-3.34,4.85-4.92c1.67-1.58,3.43-3.04,5.16-4.53
			c3.85-3.31-3.05,2.08-0.33,0.27c1.27-0.84,2.48-1.76,3.75-2.6c4.02-2.65,8.22-5,12.57-7.06c0.87-0.41,1.98-0.76,2.76-1.26
			c-4.25,2.73-2.21,0.92-0.46,0.25c2.6-0.99,5.24-1.89,7.91-2.69c4.36-1.3,8.8-2.34,13.29-3.11c0.5-0.08,1-0.16,1.49-0.25
			c1.99-0.3,2-0.3,0.01-0.02c-0.5,0.07-0.99,0.14-1.49,0.2c1-0.12,2-0.22,3.01-0.32c2.59-0.24,5.19-0.39,7.79-0.45
			c5.58-0.14,11.17,0.09,16.72,0.66c1.39,0.14,5.47,0.21,0.14-0.05c1.12,0.05,2.4,0.36,3.49,0.55c3.2,0.54,6.38,1.19,9.54,1.93
			c5.49,1.29,10.9,2.85,16.24,4.66c2.26,0.76,4.5,1.57,6.73,2.42c1.65,0.63,3.42,1.19,5,1.98c-0.69-0.29-1.38-0.58-2.07-0.88
			c1.1,0.47,2.2,0.96,3.29,1.45c10.06,4.53,19.88,9.73,29.17,15.68c2.37,1.52,4.71,3.1,7,4.74c0.66,0.47,2.39,1.42,2.73,2
			c-1.35-2.31-2.28-1.87-0.55-0.39c4.32,3.7,8.53,7.42,12.36,11.64c1.12,1.23,2.17,2.52,3.26,3.78c1.55,1.78,0.17,1.87-0.63-0.85
			c0.61,2.07,3.28,4.64,4.43,6.46c2.81,4.45,5.16,9.11,7.4,13.87c1.05,2.25-0.41,1.66-0.42-1c0,0.67,0.86,2.22,1.14,2.96
			c0.92,2.49,1.76,5.01,2.51,7.55c1.52,5.12,2.74,10.33,3.64,15.59c0.1,0.59,0.64,2.45,0.51,3.18c0.77-4.34-0.34-2.77-0.08-0.39
			c0.26,2.41,0.47,4.82,0.61,7.23c0.32,5.36,0.35,10.74,0.1,16.11c-0.13,2.67-0.32,5.34-0.59,8c-0.11,1.06-0.13,2.44-0.39,3.51
			c1.27-5.12,0.17-1.32-0.06,0.12c-0.92,5.77-2.13,11.5-3.6,17.16c-1.39,5.36-3.01,10.67-4.84,15.9c-0.86,2.48-1.77,4.94-2.73,7.39
			c-0.52,1.34-0.96,2.79-1.62,4.06c1.75-3.39,0.43-0.99-0.48,1.06c-8.91,20.06-20.25,39.22-33.31,56.86
			c-0.83,1.12-1.63,2.26-2.51,3.34c0.43-0.53,3-3.74,0.43-0.61c-1.76,2.15-3.5,4.31-5.3,6.41c-3.59,4.19-7.34,8.25-11.25,12.14
			c-3.49,3.48-7.12,6.82-10.89,10c-0.83,0.7-1.69,1.38-2.52,2.09c-4.25,3.63,3.92-2.77-0.61,0.51c-2.21,1.6-4.4,3.2-6.67,4.72
			c-5.44,3.64-11.12,6.92-16.94,9.9c-2.64,1.35-5.31,2.65-8.01,3.89c-1.35,0.62-2.7,1.23-4.06,1.82c-0.81,0.36-1.63,0.71-2.45,1.06
			c2.64-1.11,2.79-1.19,0.45-0.22c-12.08,4.7-24.26,9.08-36.64,12.92c-26.65,8.27-53.92,14.39-81.53,18.41
			c-5.18,0.76-10.93,6.04-13.45,10.34c-2.82,4.82-4.02,11.93-2.27,17.34c4.14,12.78,15.15,17.54,27.68,15.71
			c26.35-3.84,52.4-9.58,77.89-17.3c24.93-7.55,50.28-16.35,72.93-29.39c42.6-24.53,74.1-67.13,94.96-110.89
			c21.75-45.64,32.54-99.46,14.19-148.22c-9.67-25.7-25.41-46.2-47.38-62.6c-20.27-15.13-44.39-26.55-68.55-33.83
			c-27.48-8.28-57.39-10.25-85.28-2.73c-27.83,7.5-51.16,23.78-68.41,46.67c-3.28,4.35-3.64,12.35-2.27,17.34
			c1.44,5.22,5.47,10.88,10.34,13.45C574.64,610.99,586,606.74,593.59,596.67L593.59,596.67z"/>
	</g>
</g>
<g>
	<g>
		<path d="M1476.11,657.42c-6.87,50.84-13.49,101.75-4.71,152.81c7.43,43.17,29.62,87.33,69.92,108.24
			c22.95,11.91,49.6,16.39,74.76,9.14c11.3-3.26,19.49-16.02,15.71-27.68c-3.72-11.49-15.56-19.21-27.68-15.71
			c-1.95,0.56-3.91,1.08-5.9,1.48c-0.5,0.09-0.99,0.19-1.49,0.28c-1.99,0.32-1.99,0.33,0,0.04c0.5-0.07,1-0.14,1.49-0.2
			c-0.75,0.08-1.5,0.15-2.25,0.2c-4.3,0.33-8.51,0.11-12.8-0.17c-5.09-0.34,3.98,0.8,0.73,0.09c-0.99-0.22-1.99-0.36-2.98-0.57
			c-1.99-0.42-3.96-0.91-5.91-1.47c-1.96-0.56-3.9-1.2-5.81-1.9c-2.09-0.76-4.01-0.19,0.39,0.27c-1.11-0.12-2.51-1.14-3.49-1.62
			c-3.7-1.8-7.27-3.85-10.7-6.12c-1.07-0.71-2.11-1.47-3.17-2.19c-1.83-1.24-2.04-0.26,0.87,0.72c-1.72-0.58-3.92-3.3-5.24-4.52
			c-3.32-3.08-6.32-6.44-9.24-9.89c-0.89-1.05-2.84-2.43,0.5,0.7c-0.69-0.65-1.4-1.9-1.92-2.64c-1.57-2.22-3.05-4.49-4.46-6.81
			c-2.26-3.72-4.33-7.56-6.21-11.49c-0.47-0.98-0.92-1.98-1.38-2.97c-1.18-2.53,0.56-1.12,0.32,0.86c0.23-1.84-2.28-5.86-2.92-7.68
			c-3.1-8.82-5.43-17.91-7.17-27.1c-0.41-2.16-0.78-4.32-1.12-6.49c-0.18-1.17-0.4-2.37-0.53-3.55c0.48,4.63,0.16,1.14,0.06,0.18
			c-0.62-5.8-1.16-11.6-1.47-17.43c-0.58-11.01-0.55-22.05-0.08-33.06c0.52-12.37,1.58-24.7,2.92-37.01
			c0.71-6.49,1.49-12.97,2.32-19.44c0.41-3.23,0.84-6.47,1.27-9.7c0.17-1.29,0.34-2.58,0.52-3.88c-0.56,4.06,0,0,0.24-1.76
			c0.85-6.28,1.08-11.62-2.27-17.34c-2.73-4.67-8.08-9.12-13.45-10.34C1493.23,639.3,1477.8,644.94,1476.11,657.42L1476.11,657.42z"
			/>
	</g>
</g>
</svg>
