<?xml version="1.0" encoding="utf-8"?>
<!-- Generator: Adobe Illustrator 23.1.0, SVG Export Plug-In . SVG Version: 6.00 Build 0)  -->
<svg version="1.1" id="Layer_1" xmlns="http://www.w3.org/2000/svg" xmlns:xlink="http://www.w3.org/1999/xlink" x="0px" y="0px"
	 viewBox="0 0 2000 1000" style="enable-background:new 0 0 2000 1000;" xml:space="preserve">
<g>
	<g>
		<path d="M450.43,107.14c0.97,80.52-0.56,161.06-4.63,241.48c-4.07,80.42-10.68,160.71-19.79,240.71
			c-2.53,22.21-5.26,44.4-8.17,66.57c-0.17,1.3-0.34,2.61-0.52,3.91c-0.08,0.58-0.8,5.98-0.38,2.88c0.39-2.93-0.16,1.21-0.26,1.9
			c-0.22,1.63-0.44,3.26-0.67,4.89c-0.76,5.54-1.53,11.07-2.31,16.61c-1.61,11.4-3.28,22.79-4.99,34.17
			c-0.93,6.21-1.03,11.69,2.27,17.34c2.73,4.67,8.08,9.12,13.45,10.34c10.71,2.44,25.81-3.27,27.68-15.71
			c12.27-81.64,22.1-163.65,29.23-245.89c6.99-80.54,11.43-161.3,13.33-242.13c1.07-45.67,1.31-91.37,0.76-137.05
			c-0.14-11.76-10.25-23.05-22.5-22.5C460.86,85.18,450.28,94.53,450.43,107.14L450.43,107.14z"/>
	</g>
</g>
<g>
	<g>
		<path d="M489.67,468.5c1.62-1.56,3.28-3.08,4.99-4.54c0.71-0.61,2.01-2.17,2.89-2.38c-0.25,0.06-4.38,3.15-0.98,0.81
			c3.71-2.55,7.41-5.03,11.36-7.21c1.97-1.08,3.96-2.11,5.99-3.07c0.71-0.34,2.69-1.69,3.4-1.55c-0.15-0.03-5.21,2-1.22,0.55
			c4.24-1.54,8.46-3.02,12.82-4.16c4.38-1.14,8.82-1.71,13.22-2.66c-0.52,0.11-5.49,0.59-1.52,0.26c1-0.08,1.99-0.19,2.99-0.27
			c2.49-0.19,4.99-0.3,7.48-0.33c4.5-0.05,8.97,0.23,13.45,0.65c1.62,0.15,3.51,1.11-1.53-0.23c0.93,0.25,1.99,0.31,2.95,0.49
			c2.45,0.44,4.89,0.96,7.31,1.57c4.36,1.1,8.57,2.55,12.78,4.11c1.58,0.59,2.69,1.93-1.37-0.59c0.77,0.48,1.79,0.81,2.62,1.21
			c2.17,1.04,4.31,2.16,6.4,3.34c3.78,2.14,7.34,4.57,10.9,7.07c1.28,0.9,2.33,2.59-1.11-0.88c0.65,0.66,1.52,1.23,2.24,1.83
			c1.84,1.55,3.64,3.16,5.39,4.82c3.14,3,6.11,6.17,8.9,9.5c0.59,0.7,1.18,1.64,1.83,2.24c-0.36-0.34-3.12-4.23-0.88-1.11
			c1.41,1.96,2.8,3.93,4.11,5.96c2.35,3.65,4.5,7.43,6.43,11.31c0.85,1.72,1.54,3.55,2.44,5.24c-3.04-5.75,0.23,0.82,0.88,2.7
			c1.41,4.1,2.59,8.27,3.51,12.51c0.41,1.88,0.74,3.78,1.07,5.68c0.68,3.89-0.22-1.23-0.21-1.68c-0.03,1.37,0.31,2.95,0.41,4.32
			c0.41,5.44,0.4,10.92,0.04,16.37c-0.15,2.28-0.06,5.03-0.69,7.24c1.28-4.49,0.25-1.83,0.02-0.58c-0.33,1.79-0.63,3.59-1,5.38
			c-1.1,5.37-2.51,10.68-4.17,15.91c-0.74,2.33-1.53,4.64-2.36,6.94c-0.42,1.15-0.85,2.29-1.29,3.43c-0.25,0.66-2.42,6.48-0.5,1.42
			c-3.32,8.76-8.12,17.25-12.91,25.28c-2.27,3.81-4.66,7.55-7.16,11.22c-1.11,1.63-2.24,3.24-3.39,4.84c-1,1.39-6.03,7.4-1.81,2.54
			c-5.84,6.72-11.31,13.64-17.57,19.99c-6.24,6.33-12.83,12.31-19.73,17.91c-0.77,0.62-1.54,1.23-2.31,1.85
			c-3.12,2.52,0.84-0.48,1.04-0.79c-0.93,1.43-3.95,2.95-5.36,3.97c-3.81,2.74-7.7,5.37-11.66,7.88
			c-8.34,5.29-17.01,10.08-25.93,14.31c-2.23,1.06-4.49,2.06-6.74,3.07c-3.78,1.7,1.14-0.33,1.29-0.53
			c-0.59,0.79-3.1,1.27-4.12,1.66c-4.59,1.8-9.24,3.47-13.93,4.98c-9.62,3.1-19.44,5.58-29.39,7.38c-2.43,0.44-4.86,0.8-7.3,1.2
			c-3.05,0.5,4.66-0.56,1.58-0.2c-1.47,0.17-2.94,0.36-4.41,0.51c-5.16,0.55-10.33,0.89-15.52,1.08
			c-11.75,0.43-23.06,10.04-22.5,22.5c0.53,11.82,9.9,22.96,22.5,22.5c83.36-3.06,162.34-48.79,207.38-118.89
			c25.41-39.55,41.4-89.59,28.64-136.28c-11.52-42.15-43.59-76.64-84.39-91.77c-46.78-17.35-102.5-3.84-138.12,30.31
			c-8.51,8.16-8.83,23.72,0,31.82C466.99,476.89,480.59,477.21,489.67,468.5L489.67,468.5z"/>
	</g>
</g>
<g>
	<g>
		<path d="M782.47,108.16c-5.64,95.78-11.27,191.56-16.91,287.33c-2.8,47.56-5.6,95.11-8.39,142.67
			c-1.39,23.61-2.78,47.22-4.17,70.84c-1.44,24.42-3.66,48.7,0.3,73.01c3.94,24.19,17.05,47.26,37.83,60.75
			c23.74,15.42,53.46,12.07,79.49,5.63c11.43-2.83,19.39-16.32,15.71-27.68c-3.84-11.85-15.43-18.74-27.68-15.71
			c-4.77,1.18-9.56,2.27-14.4,3.1c-0.78,0.13-4.52,0.77-1.31,0.26c3.19-0.51-0.52,0.04-1.32,0.12c-2.86,0.28-5.72,0.45-8.59,0.46
			c-2.28,0.01-4.52-0.23-6.79-0.28c-3.22-0.07,4.1,0.87,0.97,0.15c-1.36-0.31-2.75-0.52-4.11-0.86c-1-0.25-5.95-1.09-6.41-2.06
			c-0.08-0.16,4.62,2.48,0.94,0.23c-1.25-0.77-2.56-1.42-3.8-2.22c-0.73-0.47-1.65-1.35-2.4-1.66c0.62,0.26,3.81,3.39,1.15,0.77
			c-1.39-1.37-2.85-2.65-4.17-4.1c0.12,0.13-1.98-2.1-1.92-2.22c-0.03,0.07,2.76,3.89,0.83,1.04c-1.39-2.05-2.74-4.11-3.95-6.28
			c-0.43-0.78-3.07-4.73-2.68-5.33c-0.16,0.25,1.71,4.46,0.54,1.24c-0.34-0.94-0.7-1.86-1.02-2.81c-1.61-4.74-2.67-9.59-3.54-14.51
			c-0.81-4.57-0.2-0.12,0.04,0.4c-0.36-0.78-0.28-2.77-0.36-3.74c-0.23-2.82-0.37-5.64-0.44-8.46c-0.15-5.67-0.01-11.35,0.23-17.01
			c0.49-11.41,1.28-22.82,1.95-34.22c1.33-22.61,2.66-45.23,3.99-67.84c5.4-91.79,10.8-183.57,16.2-275.36
			c3.05-51.88,6.11-103.76,9.16-155.64c0.69-11.77-10.84-23.02-22.5-22.5C792.18,86.23,783.21,95.55,782.47,108.16L782.47,108.16z"
			/>
	</g>
</g>
<g>
	<g>
		<path d="M1083.77,403.07c-18.09,1.83-35.13,7.69-49.77,18.69c-14.91,11.2-27.18,25.12-35.96,41.64
			c-17.82,33.53-24.42,73.26-28.99,110.55c-4.55,37.14-1.48,74.91,15.14,108.85c14.86,30.34,41.68,54.16,74.25,63.67
			c30.15,8.8,63.81,5.57,92.6-6.43c32.11-13.4,57.87-36.12,76.19-65.72c17.86-28.86,26.91-61.74,31.15-95.14
			c4.61-36.3,2.32-73.93-13.12-107.51c-29.55-64.27-110.68-93.44-175.47-67.75c-8.89,3.52-17.46,7.52-25.51,12.69
			c-9.89,6.36-14.85,20.27-8.07,30.78c6.38,9.89,20.19,14.88,30.78,8.07c2.95-1.9,5.97-3.69,9.08-5.33
			c1.68-0.88,3.37-1.72,5.09-2.52c0.74-0.34,1.48-0.66,2.22-1c2.83-1.31-3.82,1.4-0.87,0.4c7-2.37,13.84-4.69,21.13-6.1
			c1.07-0.21,2.15-0.38,3.22-0.58c0.6-0.11,3.4-0.45,0.24-0.08c-3.35,0.39,1.85-0.18,2.7-0.26c3.8-0.35,7.62-0.52,11.44-0.5
			c3.54,0.01,7.09,0.18,10.62,0.5c0.86,0.08,2.5,0.5,3.25,0.34c-0.1,0.02-4.47-0.72-1.93-0.24c1.87,0.35,3.76,0.63,5.63,1.01
			c3.35,0.69,6.66,1.54,9.94,2.53c1.71,0.52,3.4,1.07,5.08,1.67c0.72,0.25,1.44,0.52,2.15,0.79c0.64,0.24,3.84,1.67,0.85,0.28
			c-3.22-1.5,2.1,0.96,2.88,1.34c1.37,0.66,2.73,1.34,4.08,2.05c3.14,1.65,6.2,3.44,9.18,5.36c1.48,0.96,2.95,1.96,4.39,2.98
			c0.62,0.44,1.23,0.89,1.84,1.33c1.65,1.19,1.22,2.12-0.96-0.75c1.96,2.58,5.56,4.69,7.93,6.97c2.35,2.26,4.59,4.62,6.74,7.07
			c0.99,1.13,1.91,2.31,2.89,3.44c1.66,1.91-1.3-1.65-1.22-1.6c0.84,0.42,1.68,2.29,2.19,3.02c3.73,5.33,8.61,12.04,10.35,18.38
			c-0.04-0.14-1.48-3.8-0.6-1.38c0.29,0.81,0.63,1.61,0.93,2.42c0.7,1.89,1.35,3.8,1.96,5.72c1.22,3.84,2.25,7.74,3.11,11.68
			c0.34,1.54,2.92,10.27,2,11.07c-0.04,0.04-0.49-4.43-0.25-1.68c0.07,0.86,0.2,1.73,0.28,2.59c0.23,2.31,0.42,4.62,0.56,6.94
			c0.49,7.82,0.49,15.67,0.16,23.5c-0.31,7.22-0.95,14.4-1.8,21.57c-0.52,4.38,0.64-4.14-0.04,0.22c-0.28,1.81-0.56,3.61-0.87,5.41
			c-0.62,3.61-1.31,7.2-2.09,10.77c-1.5,6.89-3.3,13.72-5.44,20.44c-1.03,3.23-2.13,6.43-3.32,9.6c-0.64,1.71-1.31,3.4-1.98,5.09
			c-0.22,0.55-1.26,3.07-0.07,0.19c1.25-3.02-0.16,0.3-0.42,0.88c-2.86,6.38-6.08,12.6-9.67,18.6c-1.73,2.88-3.55,5.72-5.45,8.49
			c-1.03,1.49-2.09,2.96-3.15,4.43c-0.34,0.47-1.99,2.6-0.12,0.2c1.97-2.52-0.26,0.3-0.65,0.78c-4.45,5.48-9.28,10.64-14.47,15.42
			c-1.27,1.17-2.56,2.31-3.87,3.43c-1.23,1.04-5.59,3.85-0.5,0.54c-2.83,1.84-5.47,3.98-8.32,5.8c-5.57,3.56-11.41,6.43-17.34,9.33
			c-2.23,1.09,2.05-0.83,2.01-0.82c-0.69,0.23-1.36,0.56-2.04,0.82c-1.59,0.63-3.19,1.23-4.81,1.8c-3.22,1.13-6.49,2.15-9.79,3.03
			c-3.06,0.82-6.15,1.53-9.26,2.12c-1.43,0.27-2.88,0.47-4.31,0.75c-2.51,0.49,2.48-0.3,2.38-0.29c-1.2,0.08-2.41,0.29-3.61,0.41
			c-6.46,0.63-12.97,0.77-19.45,0.33c-1.43-0.1-2.85-0.24-4.28-0.37c-4.09-0.36,4.77,0.8-0.38-0.06c-3.27-0.55-6.52-1.25-9.73-2.11
			c-2.97-0.8-5.9-1.73-8.78-2.81c-0.66-0.25-1.32-0.53-1.99-0.77c-2.31-0.84,2.16,0.93,2.1,0.89c-1.52-1.01-3.5-1.63-5.13-2.47
			c-2.77-1.45-5.46-3.04-8.07-4.76c-1.36-0.9-2.92-2.5-4.4-3.1c0.08,0.03,3.37,2.78,1.54,1.16c-0.76-0.67-1.57-1.3-2.33-1.96
			c-2.48-2.16-4.86-4.45-7.11-6.84c-1.21-1.29-2.39-2.61-3.53-3.96c-0.49-0.58-0.97-1.17-1.45-1.75c-1.94-2.33,0.38-0.08,0.73,0.96
			c-0.93-2.74-3.96-5.63-5.51-8.17c-1.85-3.02-3.57-6.13-5.15-9.3c-0.79-1.59-1.52-3.21-2.27-4.82c-1.79-3.86,1.4,3.74-0.08-0.25
			c-1.24-3.33-2.45-6.67-3.47-10.07c-2-6.62-3.38-13.34-4.49-20.15c-0.56-3.43,0.31,3.72,0.06,0.26c-0.07-0.96-0.21-1.91-0.3-2.87
			c-0.18-1.91-0.33-3.82-0.45-5.74c-0.28-4.47-0.39-8.95-0.37-13.42c0.05-8.98,0.68-17.96,1.69-26.88c0.22-1.92,0.42-3.84,0.7-5.75
			c-0.6,4.05,0.02,0.05,0.28-1.68c0.73-4.78,1.54-9.55,2.42-14.31c2.9-15.81,6.09-31.67,10.89-47.03c1.12-3.6,2.34-7.17,3.68-10.69
			c0.73-1.92,1.72-4.76,0.34-1.07c0.81-2.15,1.89-4.25,2.9-6.31c1.66-3.39,3.46-6.71,5.42-9.94c0.85-1.39,1.72-2.77,2.62-4.13
			c0.42-0.63,0.85-1.26,1.28-1.88c0.18-0.26,3.17-4.24,0.96-1.39c-2.02,2.6,1.08-1.25,1.61-1.87c1.17-1.36,2.37-2.68,3.6-3.97
			c2.49-2.59,5.14-4.97,7.85-7.32c3.17-2.75-3.16,2.16,0.29-0.24c1.47-1.02,2.92-2.04,4.43-3c3.03-1.91,6.2-3.44,9.37-5.09
			c2.3-1.2-1.95,0.88-1.88,0.77c0.19-0.31,2.75-1.03,2.85-1.07c1.44-0.5,2.89-0.96,4.36-1.37c1.47-0.41,2.96-0.77,4.45-1.09
			c-0.18,0.04,2.94-0.67,3.02-0.56c-0.02-0.03-5.86,0.68-1.39,0.23c11.67-1.18,23.08-9.5,22.5-22.5
			C1105.77,414.39,1096.31,401.8,1083.77,403.07L1083.77,403.07z"/>
	</g>
</g>
<g>
	<g>
		<path d="M1621.17,419.18c-44.16-23.54-97.53-28.48-144.89-11.62c-46.43,16.53-83.77,50.73-107.41,93.7
			c-24.57,44.66-35.91,98.28-27.68,148.84c7.69,47.29,44.88,87.86,91.33,99.74c55.8,14.27,112.47-15.78,147.36-58.35
			c7.45-9.09,9.56-23.05,0-31.82c-8.25-7.57-23.85-9.72-31.82,0c-6.93,8.46-14.53,16.34-22.9,23.39c-1.03,0.87-2.1,1.7-3.13,2.57
			c-2.6,2.2,4.39-3.2,0.09-0.07c-2.16,1.57-4.32,3.13-6.54,4.61c-4.39,2.92-8.93,5.61-13.62,8.04c-2.32,1.2-4.67,2.29-7.04,3.38
			c-3.82,1.76,0.85-0.21,1.08-0.46c-0.71,0.77-3.34,1.29-4.34,1.64c-4.81,1.72-9.73,3.14-14.73,4.2c-0.99,0.21-1.99,0.41-2.99,0.59
			c-0.5,0.09-1,0.18-1.5,0.27c-2.49,0.39-2,0.34,1.47-0.14c-0.37,0.72-5.96,0.57-6.82,0.62c-5.12,0.3-10.17,0.08-15.28-0.3
			c-3.81-0.28,1.6,0.16,1.97,0.3c-0.98-0.37-2.29-0.37-3.33-0.56c-2-0.37-3.99-0.81-5.96-1.32c-2.2-0.56-4.38-1.21-6.54-1.92
			c-1.08-0.36-2.16-0.74-3.23-1.14c-0.64-0.24-1.29-0.48-1.92-0.74c-2.22-0.9-1.7-0.68,1.57,0.67c-1.05-1.21-4.15-1.95-5.6-2.7
			c-1.85-0.96-3.67-1.98-5.46-3.05c-2-1.2-3.95-2.46-5.86-3.79c-0.96-0.67-1.89-1.37-2.84-2.05c-1.7-1.22,4.04,3.29,0.13,0.03
			c-3.45-2.88-6.71-5.97-9.77-9.26c-0.3-0.32-4.69-5.4-4.68-5.41c0.25-0.15,2.87,3.94,0.88,1.14c-0.98-1.37-1.97-2.73-2.9-4.14
			c-2.56-3.84-4.86-7.86-6.88-12.01c-0.54-1.11-1.03-2.23-1.55-3.35c-1.37-2.95,1.9,5.32,0.3,0.57c-0.8-2.37-1.69-4.71-2.4-7.11
			c-0.83-2.78-1.52-5.6-2.12-8.45c-0.33-1.55-0.61-3.1-0.88-4.66c-0.23-1.38-1.48-5.24-0.14-0.61c-1.65-5.72-1.07-13.15-1.09-19.06
			c-0.02-5.55,0.17-11.09,0.58-16.62c0.18-2.39,0.39-4.78,0.65-7.17c0.13-1.24,0.07-2.79,0.46-3.97c-1.75,5.23-0.2,1.48,0.08-0.34
			c1.62-10.46,4-20.81,7.1-30.94c1.46-4.78,3.08-9.5,4.86-14.17c0.83-2.18,1.58-4.47,2.62-6.56c-2.73,5.52-0.27,0.74,0.23-0.37
			c0.64-1.42,1.3-2.84,1.97-4.25c4.44-9.3,9.54-18.28,15.28-26.84c1.28-1.9,2.59-3.78,3.93-5.64c0.74-1.03,1.5-2.04,2.25-3.06
			c2.38-3.24-0.57,0.54-0.74,0.95c0.83-2.01,3.35-4.15,4.79-5.84c1.95-2.28,3.95-4.52,6.01-6.71c3.06-3.25,6.24-6.4,9.54-9.42
			c1.82-1.66,3.67-3.29,5.56-4.87c0.75-0.63,1.51-1.26,2.27-1.87c0.76-0.62,1.53-1.23,2.3-1.83c-2.43,1.87-2.98,2.3-1.64,1.29
			c8.72-6.19,17.62-11.84,27.31-16.42c1.2-0.57,2.42-1.11,3.63-1.66c5-2.29-4.62,1.76,0.5-0.19c2.72-1.04,5.44-2.06,8.2-2.99
			c5.74-1.92,11.59-3.51,17.51-4.76c2.56-0.54,5.14-1.02,7.73-1.44c0.52-0.08,1.03-0.16,1.55-0.24c2.51-0.36,2.07-0.3-1.31,0.17
			c0.95-0.63,3.62-0.4,4.68-0.49c5.72-0.52,11.48-0.73,17.22-0.63c5.77,0.11,11.44,0.89,17.19,1.25c-5.78-0.36-2.11-0.27-0.55-0.01
			c1.81,0.3,3.61,0.62,5.41,0.98c2.57,0.51,5.13,1.09,7.67,1.74c5.62,1.42,11.16,3.16,16.59,5.2c1.42,0.54,3.12,0.99,4.44,1.75
			c-0.81-0.34-1.63-0.68-2.44-1.02c0.98,0.43,1.95,0.86,2.91,1.31c2.91,1.35,5.78,2.8,8.61,4.31c10.38,5.54,24.96,2.96,30.78-8.07
			C1634.76,439.53,1632.26,425.09,1621.17,419.18L1621.17,419.18z"/>
	</g>
</g>
<g>
	<g>
		<path d="M1597.3,390.02c-9.33,58.58-18.66,117.16-27.99,175.74c-8.86,55.65-16.9,111.69-31.84,166.12
			c-3.65,13.3-7.71,26.48-12.31,39.48c-2.11,5.95-4.33,11.86-6.67,17.72c-0.43,1.07-0.86,2.13-1.29,3.19
			c-2.19,5.44,1.95-4.4-0.4,0.97c-1.38,3.15-2.75,6.3-4.19,9.43c-5.26,11.41-11.09,22.57-17.58,33.33
			c-3.23,5.35-6.63,10.61-10.2,15.74c-1.62,2.33-3.28,4.63-4.97,6.91c-0.34,0.45-0.68,0.91-1.02,1.36
			c-1.51,1.98-1.37,1.81,0.41-0.51c-0.56,1.25-2.32,2.92-3.19,3.98c-7.61,9.29-15.91,18.01-24.89,25.98
			c-2.42,2.14-4.89,4.23-7.4,6.27c-0.68,0.55-2.07,1.36-2.53,2.01c0.67-0.52,1.33-1.03,2-1.55c-0.86,0.65-1.72,1.29-2.58,1.93
			c-4.97,3.64-10.1,7.06-15.39,10.21c-4.8,2.87-9.73,5.52-14.78,7.93c-1.44,0.69-2.89,1.33-4.34,2c-3.69,1.71,0.51-0.1,0.99-0.39
			c-2.81,1.69-6.57,2.58-9.66,3.63c-5.26,1.79-10.61,3.31-16.02,4.53c-2.58,0.58-5.18,1.1-7.79,1.54c-1.02,0.17-6.56,1.32-1.25,0.25
			c-2.45,0.49-5.09,0.56-7.58,0.75c-14.52,1.11-29.2,0.57-43.68-0.79c-1.41-0.13-2.82-0.27-4.23-0.43c-0.73-0.08-6.8-0.88-2.67-0.29
			c4.06,0.58-0.69-0.12-1.26-0.2c-1.89-0.29-3.78-0.6-5.66-0.94c-5.65-1.02-11.25-2.28-16.78-3.83c-2.74-0.77-5.46-1.61-8.16-2.54
			c-1.34-0.46-2.67-0.94-3.99-1.44c-0.88-0.33-1.75-0.67-2.63-1.03c0.93,0.4,1.85,0.79,2.78,1.19c-2.3-1.84-6.16-2.81-8.8-4.22
			c-2.43-1.3-4.82-2.7-7.14-4.2c-0.77-0.5-1.53-1.01-2.28-1.53c-0.75-0.52-1.5-1.05-2.23-1.59c-1.9-1.43-1.47-1.09,1.3,1.01
			c-0.54-1.52-4.83-4.22-6.11-5.48c-1.94-1.93-3.56-4.25-5.54-6.13c4.15,3.94,1.25,1.64,0.17,0.09c-1.08-1.55-2.07-3.15-3.05-4.77
			c-6.05-10.1-20.5-14.71-30.78-8.07c-10.15,6.55-14.54,19.98-8.07,30.78c26.97,45.03,81.44,57.38,130.24,59.66
			c28.17,1.32,56.58-1.86,82.83-12.55c25.57-10.42,48.54-25.4,68.67-44.35c40.15-37.8,65.65-88.64,83.11-140.26
			c18.8-55.57,28.26-113.69,37.47-171.46c10.8-67.73,21.58-135.47,32.36-203.21c0.98-6.17,1.01-11.74-2.27-17.34
			c-2.73-4.67-8.08-9.12-13.45-10.34C1614.19,371.85,1599.28,377.59,1597.3,390.02L1597.3,390.02z"/>
	</g>
</g>
</svg>
