<?xml version="1.0" encoding="utf-8"?>
<!-- Generator: Adobe Illustrator 23.1.0, SVG Export Plug-In . SVG Version: 6.00 Build 0)  -->
<svg version="1.1" id="Layer_1" xmlns="http://www.w3.org/2000/svg" xmlns:xlink="http://www.w3.org/1999/xlink" x="0px" y="0px"
	 viewBox="0 0 2000 1000" style="enable-background:new 0 0 2000 1000;" xml:space="preserve">
<g>
	<g>
		<path d="M240.96,456.23c5.21,101.9,16.97,203.5,35.08,303.91c2.55,14.14,5.23,28.26,8.04,42.36c1.57,7.87,2.62,15.83,6.08,23.15
			c4.22,8.93,14.49,17.11,24.94,15.71c11.04-1.48,17.56-6.19,21.7-16.52c22.99-57.4,45.98-114.8,68.97-172.2
			c1.48-3.7,3.01-7.39,4.45-11.11c2.41-6.22-2.19,4.44,0.06-0.21c0.6-1.25,1.17-2.51,1.81-3.74c0.84-1.59,3.37-4.21,3.58-5.85
			c-0.63,0.82-1.25,1.65-1.88,2.47c0.56-0.65,1.15-1.27,1.77-1.87c1.77-1.56,1.22-1.15-1.66,1.21c2.05-1.15,1.33-0.92-2.16,0.68
			c4.13-1.26-4.82,0.02-1.81,0.08c2.94,0.05-5.76-1.53-1.47-0.12c-1-0.41-2-0.82-3-1.23c1.98,1.24,1.55,0.83-1.28-1.25
			c0.01,0.14,3.07,2.87,2.94,2.94c-0.58-0.77-1.15-1.55-1.73-2.32c0.58,0.78,1.13,1.57,1.67,2.38c0.54,0.81,1.05,1.64,1.55,2.47
			c2.1,3.5,3.97,7.14,5.92,10.72c14.54,26.75,29.07,53.49,43.61,80.24c16.75,30.82,33.5,61.63,50.25,92.45
			c3.75,6.9,11.69,11.14,19.43,11.14c7.15,0,16.44-4.12,19.43-11.14c19.45-45.66,31.21-93.38,39.45-142.22
			c8.2-48.56,14.3-97.49,21.12-146.26c4.01-28.71,8.03-57.42,12.04-86.13c0.88-6.26,1.06-11.64-2.27-17.34
			c-2.73-4.67-8.08-9.12-13.45-10.34c-10.61-2.42-25.93,3.25-27.68,15.71c-7.02,50.24-14.05,100.49-21.07,150.73
			c-6.58,47.1-12.77,94.39-23.97,140.67c-3.11,12.84-6.6,25.58-10.61,38.17c-2.04,6.43-4.22,12.81-6.54,19.14
			c-1.06,2.88-2.14,5.74-3.26,8.6c-0.56,1.43-1.13,2.85-1.7,4.27c-0.41,1-3.04,7.25-0.92,2.27c12.95,0,25.9,0,38.86,0
			c-31.6-58.14-63.2-116.29-94.8-174.43c-7.68-14.13-17.33-30.03-34.56-33.25c-19.82-3.7-36.22,8.15-44.96,25.28
			c-7.55,14.81-12.89,31.06-19.07,46.49c-6.18,15.43-12.36,30.86-18.54,46.29c-13.97,34.87-27.93,69.74-41.9,104.62
			c7.23-5.51,14.46-11.01,21.7-16.52c5.01,2.95,10.01,5.9,15.02,8.85c-0.84-1.59-0.81-1.45,0.08,0.4c1.78,2.61,0.48,0.68,0.19-0.66
			c-0.63-2.87-1.18-5.76-1.76-8.64c-1.16-5.76-2.31-11.53-3.43-17.3c-2.3-11.86-4.52-23.75-6.64-35.64
			c-4.13-23.16-7.91-46.38-11.33-69.66c-0.81-5.5-1.6-11-2.37-16.5c-0.41-2.91-0.81-5.83-1.21-8.74c-0.16-1.2-0.79-5.61-0.11-0.82
			c-0.27-1.94-0.52-3.89-0.77-5.83c-1.53-11.67-2.96-23.35-4.31-35.04c-2.7-23.39-5.05-46.81-7.05-70.27
			c-2.28-26.72-4.08-53.48-5.45-80.26c-0.6-11.74-9.92-23.06-22.5-22.5C251.78,434.25,240.32,443.64,240.96,456.23L240.96,456.23z"
			/>
	</g>
</g>
<g>
	<g>
		<path d="M752.72,439.89c-36.83,22.54-54.93,63.93-62.69,104.84c-8.15,43-11.64,87.84-10.98,131.59
			c0.62,41.37,8.13,83.28,35.5,115.73c22.71,26.92,56.87,41.28,91.31,44.71c73.84,7.36,136.78-47.32,166.9-110.44
			c18.15-38.04,27.44-80,27.74-122.14c0.15-21.8-2.22-43.82-6.88-65.11c-4.82-21.99-13.82-42.22-29.29-58.79
			c-13.96-14.95-31.63-27.41-49.58-37.11c-18.15-9.81-37.87-17.4-58.08-21.62c-34.83-7.29-75.33-5.76-105.43,15.37
			c-7.83,5.49-15,11.61-20.85,19.19c-3.82,4.95-6.59,9.37-6.59,15.91c0,5.52,2.45,12.11,6.59,15.91c8.04,7.38,24.13,9.95,31.82,0
			c2.2-2.85,4.55-5.56,7.12-8.07c1.35-1.31,2.82-2.48,4.18-3.78c1.74-1.66-1.84,1.35-1.82,1.34c1.17-0.73,2.26-1.66,3.41-2.43
			c2.89-1.95,5.91-3.69,9.03-5.25c0.62-0.31,1.26-0.6,1.88-0.91c3.39-1.69-1.08,0.44-1.54,0.58c2-0.63,3.93-1.53,5.92-2.19
			c3.35-1.12,6.77-2.05,10.22-2.81c1.86-0.41,3.73-0.73,5.6-1.08c0.71-0.13,3.24-0.41-0.16-0.02c-3.87,0.44,0.43-0.04,1.28-0.13
			c7.65-0.79,15.36-0.86,23.03-0.33c1.67,0.12,3.34,0.27,5.01,0.44c5.72,0.61-4.55-0.76,1.11,0.12c4.16,0.65,8.28,1.48,12.38,2.43
			c8.57,2,17.01,4.58,25.23,7.73c1.06,0.41,2.12,0.83,3.18,1.25c3.86,1.51,0.01-0.08-0.64-0.29c2.13,0.69,4.21,1.87,6.23,2.83
			c4.13,1.96,8.19,4.07,12.18,6.31c7.79,4.38,15.11,9.37,22.33,14.61c2.61,1.89-2.93-2.41-0.45-0.34c0.88,0.73,1.79,1.43,2.67,2.16
			c1.51,1.24,3,2.51,4.46,3.8c3.36,2.97,6.59,6.09,9.59,9.42c0.75,0.83,1.47,1.7,2.21,2.54c2.74,3.07,0.08-0.14-0.37-0.59
			c1.52,1.5,2.69,3.78,3.82,5.6c1.05,1.7,2.03,3.45,2.95,5.23c0.53,1.02,1.03,2.05,1.52,3.08c1.19,2.54,1.7,2.35,0.11,0.17
			c2.22,3.05,3.06,8.73,4.06,12.36c1.24,4.5,2.27,9.05,3.18,13.62c0.9,4.51,1.65,9.03,2.34,13.58c0.66,4.3,0.09,0.23-0.06-0.52
			c0.24,1.16,0.3,2.49,0.43,3.65c0.31,2.74,0.57,5.49,0.79,8.24c0.76,9.48,1.03,18.99,0.81,28.49c-0.11,4.6-0.34,9.19-0.68,13.78
			c-0.16,2.14-0.34,4.28-0.55,6.41c-0.12,1.22-0.25,2.44-0.38,3.66c-0.09,0.83-0.62,7.06-0.11,1.32
			c-1.62,18.17-7.05,36.84-13.24,53.92c-0.69,1.91-1.41,3.82-2.15,5.71c-0.37,0.95-0.76,1.89-1.13,2.84
			c-0.23,0.57-1.27,3.04-0.04,0.13c1.29-3.06-0.04,0.06-0.38,0.82c-0.41,0.93-0.83,1.86-1.25,2.79c-0.95,2.08-1.93,4.15-2.95,6.21
			c-3.48,7.05-7.32,13.93-11.52,20.58c-2.02,3.2-4.12,6.34-6.31,9.43c-1.12,1.58-2.65,3.16-3.56,4.86c0,0,2.78-3.51,1.22-1.58
			c-0.78,0.97-1.55,1.96-2.34,2.93c-5.02,6.14-10.41,11.98-16.19,17.42c-2.68,2.52-5.44,4.96-8.28,7.3
			c-0.57,0.47-1.14,0.92-1.71,1.39c-2.98,2.45,0.65-0.55,1.09-0.82c-1.84,1.12-3.55,2.63-5.32,3.86
			c-6.18,4.28-12.67,8.11-19.44,11.38c-1.73,0.84-3.6,1.51-5.29,2.42c0.45-0.24,4.96-1.97,1.33-0.6c-0.67,0.25-1.33,0.51-1.99,0.76
			c-3.58,1.34-7.22,2.5-10.91,3.48c-3.26,0.86-6.55,1.58-9.87,2.17c-0.66,0.12-1.33,0.22-2,0.34c-3.78,0.66,1.62-0.22,1.97-0.24
			c-2.01,0.12-4.03,0.45-6.04,0.6c-6.95,0.52-13.95,0.45-20.89-0.21c-0.9-0.08-1.79-0.19-2.68-0.28c-3.83-0.38,1.65,0.15,1.97,0.27
			c-1.58-0.58-3.64-0.59-5.31-0.91c-3.52-0.68-7.01-1.52-10.46-2.51c-3.23-0.92-6.41-1.99-9.55-3.18c-0.63-0.24-1.25-0.49-1.87-0.73
			c-3.51-1.36,1.35,0.52,1.67,0.71c-1.7-0.99-3.68-1.69-5.44-2.58c-2.98-1.51-5.9-3.15-8.73-4.92c-1.51-0.95-3-1.93-4.46-2.95
			c-0.73-0.51-1.45-1.04-2.18-1.56c-2.44-1.74,0.71,0.44,1.36,1.08c-5.2-5.06-10.62-9.5-15.35-15.08c-1.53-1.81,0.04-1.56,0.99,1.34
			c-0.2-0.61-1.31-1.78-1.62-2.21c-0.93-1.31-1.83-2.65-2.7-4c-2.29-3.58-4.34-7.3-6.19-11.12c-0.49-1.01-0.93-2.04-1.42-3.05
			c-1.4-2.87,1.4,3.73,0.31,0.73c-0.67-1.84-1.41-3.66-2.05-5.51c-1.47-4.26-2.73-8.59-3.8-12.96c-1.08-4.42-1.96-8.88-2.7-13.36
			c-0.07-0.44-0.45-3.38-0.52-3.39c0.05,0.01,0.53,4.42,0.23,1.72c-0.28-2.57-0.59-5.14-0.83-7.71
			c-3.52-38.76-0.43-78.72,4.27-117.25c0.27-2.24,0.57-4.49,0.85-6.73c0.44-3.5-0.56,3.8-0.05,0.39c0.14-0.92,0.26-1.85,0.39-2.78
			c0.76-5.24,1.6-10.48,2.57-15.68c1.76-9.45,3.94-18.84,6.85-28.01c0.75-2.36,1.54-4.7,2.38-7.02c0.42-1.16,0.87-2.31,1.31-3.47
			c0.24-0.65,1.66-2.93,0.21-0.62c-1.56,2.48,0.16-0.34,0.49-1.08c0.44-0.97,0.88-1.93,1.34-2.88c1.03-2.15,2.12-4.28,3.27-6.37
			c1.78-3.24,3.7-6.41,5.76-9.47c1.13-1.68,2.25-3.68,3.66-5.12c-0.39,0.4-3.23,3.86-0.59,0.87c0.86-0.97,1.68-1.98,2.56-2.95
			c2.59-2.88,5.35-5.61,8.29-8.14c0.63-0.54,1.96-1.35,2.37-1.97c-0.32,0.48-4.16,2.96-0.87,0.74c1.7-1.15,3.39-2.29,5.15-3.36
			c10.04-6.14,14.75-20.43,8.07-30.78C777.01,437.89,763.46,433.32,752.72,439.89L752.72,439.89z"/>
	</g>
</g>
<g>
	<g>
		<path d="M1084.89,471.84c-1.97-4.59-0.33-0.78,0.15,0.38c0.56,1.37,1.11,2.75,1.65,4.14c0.86,2.21,1.69,4.43,2.5,6.65
			c2.01,5.55,3.86,11.17,5.56,16.82c3.22,10.73,5.88,21.63,8.05,32.62c1.03,5.22,1.95,10.45,2.77,15.71
			c0.18,1.17,0.36,2.34,0.53,3.51c0.03,0.2,0.86,5.99,0.34,2.29c-0.52-3.7,0.26,2.1,0.28,2.3c0.22,1.77,0.42,3.53,0.62,5.3
			c1.25,11.25,2.1,22.54,2.63,33.84c2.13,45.47-0.79,91-3.78,136.37c-1.87,28.26-3.92,56.51-6.15,84.74c15,0,30,0,45,0
			c-0.17-36.38,0.96-72.76,3.46-109.06c1.26-18.31,2.87-36.6,4.82-54.85c0.98-9.12,2.04-18.24,3.18-27.34
			c0.25-1.95,0.5-3.9,0.75-5.85c0.2-1.54,0.88-7.26,0.36-2.79c0.5-4.32,1.19-8.63,1.83-12.93c2.45-16.52,5.44-33.05,10.63-48.96
			c1.2-3.67,2.59-7.26,3.96-10.86c1.17-3.07-1.63,3.41-0.18,0.46c0.39-0.8,0.73-1.62,1.11-2.43c1.01-2.15,2.08-4.28,3.2-6.38
			c1.58-2.95,3.28-5.84,5.09-8.66c0.97-1.51,1.97-3.01,3-4.48c0.44-0.63,0.89-1.26,1.34-1.88c1.02-1.41,3.32-2.97-0.27,0.25
			c2.39-2.15,4.3-5.24,6.48-7.63c2.43-2.66,4.95-5.23,7.56-7.71c2.62-2.48,5.33-4.87,8.11-7.16c0.63-0.52,4.49-3.65,1.97-1.61
			c-2.5,2.03,0.17-0.09,0.82-0.57c0.84-0.61,1.68-1.21,2.52-1.81c5.94-4.17,12.15-7.94,18.57-11.33c2.98-1.57,6.01-3.06,9.08-4.46
			c0.85-0.39,2.12-0.75,2.84-1.27c-0.02,0.02-4.14,1.68-1.8,0.76c1.93-0.76,3.84-1.54,5.78-2.26c8.8-3.26,17.84-5.88,27-7.89
			c4.5-0.99,9.03-1.84,13.59-2.56c1.22-0.19,2.43-0.36,3.65-0.55c3.37-0.51-3.88,0.41-0.49,0.09c2.45-0.23,4.9-0.55,7.35-0.77
			c19.39-1.75,38.9-1.31,58.28,0.49c11.75,1.1,23.01-11.13,22.5-22.5c-0.59-13.13-9.91-21.33-22.5-22.5
			c-69.38-6.47-145.49,7.31-195.1,60.08c-24.75,26.33-38.07,59.23-44.6,94.4c-6.96,37.5-10.85,75.84-13.98,113.84
			c-3.53,42.79-5.16,85.73-4.95,128.66c0.06,11.77,10.31,23.05,22.5,22.5c12.99-0.58,21.5-9.9,22.5-22.5
			c3.88-49.04,7.71-98.17,9.73-147.33c1.95-47.38,1.1-94.93-7.27-141.73c-4.84-27.1-12.92-53.05-23.76-78.33
			c-2.06-4.81-8.65-9.02-13.45-10.34c-5.39-1.48-12.56-0.81-17.34,2.27C1081.68,448.32,1079.9,460.22,1084.89,471.84L1084.89,471.84
			z"/>
	</g>
</g>
<g>
	<g>
		<path d="M1485.79,122.64c-3.43,45.58-7.53,91.1-12.34,136.56c-2.39,22.56-4.95,45.11-7.68,67.63
			c-1.38,11.42-2.81,22.84-4.29,34.26c-0.72,5.54-1.44,11.09-2.18,16.63c-0.17,1.3-0.34,2.61-0.52,3.91
			c0.63-4.54,0.14-1.04,0.02-0.12c-0.44,3.26-0.88,6.52-1.33,9.77c-6.21,45.26-13.13,90.42-20.72,135.47
			c-7.75,45.99-15.88,91.95-20.65,138.38c-5.25,51.13-6.78,102.53-8.31,153.87c-0.35,11.78,10.6,23.03,22.5,22.5
			c12.49-0.56,22.12-9.88,22.5-22.5c1.36-45.75,2.73-91.54,6.72-137.16c1-11.46,2.18-22.91,3.55-34.34
			c0.31-2.58,0.63-5.17,0.96-7.75c0.17-1.29,0.33-2.58,0.5-3.87c0.57-4.39,0.08-0.68-0.03,0.18c0.71-5.81,1.63-11.6,2.49-17.39
			c3.36-22.53,7.22-44.98,11.04-67.44c15.53-91.39,28.52-183.2,38.63-275.36c5.59-50.99,10.29-102.08,14.14-153.23
			c0.88-11.76-10.98-23.02-22.5-22.5C1495.34,100.72,1486.74,110.04,1485.79,122.64L1485.79,122.64z"/>
	</g>
</g>
<g>
	<g>
		<path d="M1659.09,424.09c-27.2,26.45-55.2,52.08-83.95,76.83c-14.55,12.52-29.29,24.82-44.22,36.89
			c-7.48,6.05-15,12.04-22.57,17.97c-1.71,1.34-3.42,2.68-5.14,4.01c-1.18,0.92-5.54,4.32-2.07,1.62
			c-3.92,3.06-7.88,6.06-11.84,9.06c-17.35,13.17-34.94,26.03-52.73,38.61c-9.59,6.78-15.05,19.96-8.07,30.78
			c6.14,9.52,20.51,15.34,30.78,8.07c64.1-45.32,125.63-94.38,183.79-147.11c16.21-14.69,32.15-29.68,47.84-44.93
			c8.45-8.22,8.87-23.68,0-31.82C1681.82,415.75,1668.11,415.32,1659.09,424.09L1659.09,424.09z"/>
	</g>
</g>
<g>
	<g>
		<path d="M1546.49,567.27c3.19,3.93,6.36,7.87,9.51,11.83c1.48,1.87,2.96,3.74,4.43,5.61c0.73,0.94,1.47,1.88,2.2,2.82
			c1.41,1.81,2.19,2.77,0.31,0.39c6.26,7.96,12.27,16.13,18.25,24.3c11.98,16.37,23.55,33.04,34.7,49.99
			c22.52,34.24,43.32,69.6,62.31,105.91c10.7,20.46,20.81,41.22,30.36,62.24c4.89,10.75,21.29,14.19,30.78,8.07
			c11.1-7.16,13.3-19.28,8.07-30.78c-34.16-75.18-75.75-146.95-124.22-213.81c-14.41-19.88-29.41-39.34-44.9-58.39
			c-7.46-9.17-24.18-8.33-31.82,0C1537.55,545.19,1538.54,557.48,1546.49,567.27L1546.49,567.27z"/>
	</g>
</g>
</svg>
